<svg id="Capa_1" data-name="Capa 1" xmlns="http://www.w3.org/2000/svg" viewBox="0 0 160 70"><defs><style>.cls-1{fill:#dfe3e8;}</style></defs><path class="cls-1" d="M17.29,21.5H12.86v7.64H10.35V10.26H16.6a7.38,7.38,0,0,1,4.91,1.45,5.22,5.22,0,0,1,1.72,4.23A5.09,5.09,0,0,1,22.28,19a5.64,5.64,0,0,1-2.66,2l4.44,8v.16H21.39Zm-4.43-2h3.82a4.31,4.31,0,0,0,2.95-1,3.28,3.28,0,0,0,1.1-2.58,3.42,3.42,0,0,0-1.05-2.69,4.38,4.38,0,0,0-3-.94H12.86Z"/><path class="cls-1" d="M36.73,20.41H28.54V27.1h9.51v2h-12V10.26H37.92v2H28.54v6.08h8.19Z"/><path class="cls-1" d="M46.05,20.72a11.65,11.65,0,0,1-4.67-2.26,4.32,4.32,0,0,1-1.45-3.31,4.55,4.55,0,0,1,1.78-3.69A7.09,7.09,0,0,1,46.34,10a7.73,7.73,0,0,1,3.47.75,5.71,5.71,0,0,1,2.36,2.08A5.27,5.27,0,0,1,53,15.72h-2.5A3.46,3.46,0,0,0,49.42,13a4.42,4.42,0,0,0-3.08-1,4.56,4.56,0,0,0-2.87.81,2.69,2.69,0,0,0-1,2.25,2.47,2.47,0,0,0,1,2,9.57,9.57,0,0,0,3.33,1.46A15.59,15.59,0,0,1,50.44,20a5.63,5.63,0,0,1,2,1.86,4.81,4.81,0,0,1,.64,2.5A4.43,4.43,0,0,1,51.26,28a7.64,7.64,0,0,1-4.79,1.38,8.87,8.87,0,0,1-3.63-.75,6,6,0,0,1-2.6-2,5,5,0,0,1-.91-2.94h2.5a3.23,3.23,0,0,0,1.27,2.7,5.3,5.3,0,0,0,3.37,1,4.85,4.85,0,0,0,3-.8,2.6,2.6,0,0,0,1.06-2.19,2.57,2.57,0,0,0-1-2.15A11.51,11.51,0,0,0,46.05,20.72Z"/><path class="cls-1" d="M58.25,29.14H55.76V10.26h2.49Z"/><path class="cls-1" d="M62.13,29.14V10.26h5.33a8.55,8.55,0,0,1,4.36,1.09,7.35,7.35,0,0,1,2.92,3.1,10.07,10.07,0,0,1,1.05,4.61v1.21a10.21,10.21,0,0,1-1,4.68,7.28,7.28,0,0,1-3,3.09,9.22,9.22,0,0,1-4.45,1.1ZM64.62,12.3V27.1h2.62a5.68,5.68,0,0,0,4.48-1.79,7.37,7.37,0,0,0,1.6-5.1v-1.1a7.49,7.49,0,0,0-1.51-5,5.34,5.34,0,0,0-4.28-1.81Z"/><path class="cls-1" d="M89.55,20.41H81.37V27.1h9.51v2h-12V10.26H90.75v2H81.37v6.08h8.18Z"/><path class="cls-1" d="M107.82,29.14h-2.5l-9.5-14.55V29.14H93.31V10.26h2.51l9.53,14.61V10.26h2.47Z"/><path class="cls-1" d="M125.47,23.15a7,7,0,0,1-2.21,4.62,7.22,7.22,0,0,1-5,1.63A6.64,6.64,0,0,1,113,27a9.63,9.63,0,0,1-2-6.42V18.77a10.84,10.84,0,0,1,.94-4.63,7.05,7.05,0,0,1,2.67-3.07,7.44,7.44,0,0,1,4-1.07,6.8,6.8,0,0,1,4.82,1.68,7,7,0,0,1,2.12,4.65H123a5.41,5.41,0,0,0-1.4-3.28,4.24,4.24,0,0,0-3-1,4.44,4.44,0,0,0-3.74,1.76,8.13,8.13,0,0,0-1.36,5v1.83a8.32,8.32,0,0,0,1.29,4.9,4.13,4.13,0,0,0,3.59,1.81,4.77,4.77,0,0,0,3.18-.94A5.16,5.16,0,0,0,123,23.15Z"/><path class="cls-1" d="M130.87,29.14h-2.49V10.26h2.49Z"/><path class="cls-1" d="M145.19,24.2h-7.91l-1.78,4.94h-2.57l7.21-18.88h2.18l7.22,18.88H147Zm-7.16-2h6.42l-3.22-8.83Z"/><path class="cls-1" d="M11.32,63.66V36.54H19a12.28,12.28,0,0,1,6.26,1.57,10.56,10.56,0,0,1,4.2,4.45,14.52,14.52,0,0,1,1.5,6.63v1.73a14.67,14.67,0,0,1-1.48,6.73,10.46,10.46,0,0,1-4.23,4.43,13.08,13.08,0,0,1-6.4,1.58ZM14.9,39.47V60.74h3.76a8.22,8.22,0,0,0,6.44-2.57q2.29-2.58,2.3-7.33V49.25a10.82,10.82,0,0,0-2.17-7.18,7.71,7.71,0,0,0-6.16-2.6Z"/><path class="cls-1" d="M50.72,51.13H39v9.61H52.62v2.92H35.39V36.54h17v2.93H39V48.2H50.72Z"/><path class="cls-1" d="M79.58,56.57H68.22l-2.55,7.09H62L72.33,36.54h3.13L85.84,63.66H82.17ZM69.3,53.64h9.22L73.9,41Z"/><path class="cls-1" d="M98.48,52.69H92.11v11H88.52V36.54h9q4.57,0,7,2.09A7.51,7.51,0,0,1,107,44.7a7.34,7.34,0,0,1-1.36,4.42,8.26,8.26,0,0,1-3.81,2.81l6.37,11.51v.22h-3.84Zm-6.37-2.92h5.5a6.22,6.22,0,0,0,4.24-1.38,4.68,4.68,0,0,0,1.57-3.7,4.9,4.9,0,0,0-1.5-3.86,6.31,6.31,0,0,0-4.33-1.36H92.11Z"/><path class="cls-1" d="M128.32,39.47H119.6V63.66H116V39.47h-8.69V36.54h21Z"/><path class="cls-1" d="M146.72,51.13H135v9.61h13.65v2.92H131.39V36.54h17v2.93H135V48.2h11.75Z"/></svg>