<svg id="Capa_1" data-name="Capa 1" xmlns="http://www.w3.org/2000/svg" viewBox="0 0 160 70"><defs><style>.cls-1{fill:#dfe3e8;}</style></defs><path class="cls-1" d="M24.13,47.27l5.49-36.38h11.2V62.13H33.21V25.38L27.65,62.13H20L14,25.9V62.13H7V10.89H18.2Z"/><path class="cls-1" d="M46,23.19C46,15,50.34,10.3,58.25,10.3S70.47,15,70.47,23.19V49.83c0,8.21-4.32,12.89-12.22,12.89S46,58,46,49.83Zm8,27.16c0,3.66,1.61,5,4.18,5s4.17-1.39,4.17-5V22.67c0-3.66-1.61-5.05-4.17-5.05S54.07,19,54.07,22.67Z"/><path class="cls-1" d="M82.84,25V62.13H75.59V10.89H85.7L94,41.56V10.89h7.18V62.13H92.87Z"/><path class="cls-1" d="M104.58,10.89h24.9v7.32h-8.42V62.13H113V18.21h-8.42Z"/><path class="cls-1" d="M141,32.48H152.1v7.33H141v15H155v7.32H133V10.89h22v7.32H141Z"/></svg>